<?xml version="1.0" standalone="no"?>
<!DOCTYPE svg PUBLIC "-//W3C//DTD SVG 20010904//EN"
 "http://www.w3.org/TR/2001/REC-SVG-20010904/DTD/svg10.dtd">
<svg version="1.0" xmlns="http://www.w3.org/2000/svg"
 width="512.000000pt" height="512.000000pt" viewBox="0 0 512.000000 512.000000"
 preserveAspectRatio="xMidYMid meet">

<g transform="translate(0.000000,512.000000) scale(0.100000,-0.100000)"
fill="#000000" stroke="none">
<path d="M1855 4513 c-278 -34 -542 -121 -761 -253 -509 -304 -840 -814 -909
-1400 -18 -149 -19 -231 -4 -302 33 -155 167 -292 320 -327 24 -6 151 -11 281
-11 l237 0 6 48 c35 294 175 507 416 632 114 59 210 82 349 83 88 0 135 -5
197 -21 45 -12 94 -22 110 -22 57 0 121 31 192 93 161 142 326 207 526 207
204 0 380 -71 527 -210 56 -54 68 -71 68 -97 0 -45 -9 -62 -41 -78 -47 -25
-65 -18 -141 51 -131 118 -273 170 -438 161 -161 -8 -273 -57 -405 -177 -68
-62 -142 -98 -231 -113 -55 -9 -79 -8 -147 6 -164 36 -217 40 -311 24 -202
-35 -363 -159 -446 -342 -38 -83 -53 -155 -52 -249 1 -258 160 -477 407 -562
69 -24 96 -28 190 -28 120 0 159 10 333 89 172 77 132 75 1347 75 1160 0 1147
0 1247 51 54 28 149 123 177 177 43 84 54 156 47 297 -16 332 -92 627 -236
920 -343 699 -1024 1180 -1797 1270 -98 11 -234 15 -578 14 -247 -1 -463 -4
-480 -6z m-385 -435 c86 -24 197 -133 216 -210 l6 -28 183 0 182 0 21 49 c11
27 39 69 61 94 167 180 455 135 558 -89 l24 -54 138 0 138 0 18 45 c9 25 39
69 65 99 130 141 340 149 483 17 91 -84 129 -232 88 -346 -12 -33 -24 -67 -27
-76 -4 -12 69 -97 238 -280 133 -145 248 -263 253 -262 6 1 30 9 55 18 32 12
65 16 116 13 130 -8 238 -81 293 -197 35 -75 37 -200 4 -273 -30 -66 -105
-143 -172 -175 -48 -24 -68 -28 -141 -28 -99 0 -168 26 -239 90 l-42 38 -202
-84 -202 -84 -6 -75 c-13 -156 -106 -267 -258 -305 -147 -38 -306 33 -376 168
l-28 52 -226 -17 c-124 -9 -245 -17 -268 -17 -34 -1 -43 -5 -43 -18 0 -35 -50
-123 -93 -167 -207 -206 -553 -81 -583 211 -11 105 31 210 115 286 164 148
429 97 531 -103 24 -47 -1 -46 323 -22 l228 17 23 56 c29 71 56 109 106 149
57 45 132 71 205 71 103 0 166 -24 239 -92 l43 -39 206 87 207 86 0 66 c0 49
7 80 24 118 l25 52 -191 208 c-105 114 -215 234 -246 266 l-54 58 -52 -17
c-127 -43 -265 -7 -356 92 -26 30 -56 74 -65 99 l-18 45 -137 0 -137 0 -32
-64 c-59 -121 -169 -190 -302 -190 -67 0 -86 5 -142 32 -76 38 -147 110 -173
177 l-17 45 -182 0 -183 0 -7 -27 c-10 -44 -63 -120 -106 -154 -80 -63 -197
-89 -289 -65 -30 8 -58 12 -62 10 -15 -10 -189 -237 -185 -243 51 -94 62 -129
62 -206 0 -71 -4 -89 -33 -147 -36 -73 -87 -124 -161 -160 -38 -19 -62 -23
-146 -23 -92 0 -104 2 -153 30 -71 38 -136 112 -162 183 -31 80 -25 195 14
270 72 140 235 217 381 179 33 -8 62 -12 65 -8 3 4 45 58 94 120 l88 113 -26
52 c-140 276 106 570 404 484z"/>
<path d="M1322 3917 c-146 -29 -170 -248 -35 -313 117 -55 246 24 246 151 0
112 -96 186 -211 162z"/>
<path d="M2351 3920 c-68 -16 -120 -74 -128 -143 -7 -60 11 -110 52 -146 89
-78 212 -54 265 50 65 126 -49 270 -189 239z"/>
<path d="M3291 3920 c-75 -17 -131 -86 -131 -162 0 -184 246 -240 321 -74 24
52 23 90 0 143 -32 69 -114 110 -190 93z"/>
<path d="M716 3150 c-35 -11 -82 -54 -103 -94 -20 -39 -13 -128 14 -164 71
-96 216 -97 279 -2 61 92 29 206 -70 251 -44 20 -75 22 -120 9z"/>
<path d="M4195 2885 c-72 -39 -101 -93 -93 -176 13 -129 166 -193 267 -111 46
37 76 107 67 155 -8 42 -41 93 -78 120 -37 27 -123 33 -163 12z"/>
<path d="M3161 2453 c-71 -35 -106 -130 -77 -208 32 -82 115 -127 199 -105
145 39 174 222 48 307 -41 28 -120 31 -170 6z"/>
<path d="M1969 2367 c-149 -79 -102 -301 66 -315 158 -13 246 176 133 285 -60
58 -126 68 -199 30z"/>
<path d="M2603 1603 c2 -10 79 -227 171 -483 140 -393 171 -469 196 -492 54
-49 142 -31 174 36 13 28 16 69 16 226 l0 192 -69 64 c-120 112 -178 230 -188
387 l-6 87 -150 0 c-137 0 -149 -1 -144 -17z"/>
<path d="M3072 1541 c4 -63 11 -93 36 -144 59 -119 194 -217 362 -263 91 -25
309 -25 400 0 167 45 303 144 361 261 24 49 32 81 36 144 l6 81 -87 0 c-61 0
-88 -4 -90 -12 -2 -7 -9 -31 -15 -53 -16 -63 -69 -133 -133 -181 -147 -108
-333 -123 -497 -40 -95 48 -185 160 -206 254 l-7 32 -85 0 -86 0 5 -79z"/>
<path d="M3420 1611 c0 -21 50 -79 94 -108 93 -63 194 -68 289 -15 47 26 117
100 117 123 0 5 -104 9 -250 9 -137 0 -250 -4 -250 -9z"/>
</g>
</svg>
